Coordinates
version=1
nRows=30
nColumns=23
inDegrees=yes

Units are S.I. units (second, meters, Newtons, ...)
If the header above contains a line with 'inDegrees', this indicates whether rotational values are in degrees (yes) or radians (no).

endheader
time	pelvis_tilt	pelvis_list	pelvis_rotation	pelvis_tx	pelvis_ty	pelvis_tz	hip_flexion_r	hip_adduction_r	hip_rotation_r	knee_angle_r	knee_angle_r_beta	ankle_angle_r	subtalar_angle_r	mtp_angle_r	hip_flexion_l	hip_adduction_l	hip_rotation_l	knee_angle_l	knee_angle_l_beta	ankle_angle_l	subtalar_angle_l	mtp_angle_l
     22.50000000	      0.62605076	     -0.62660526	     -0.97803677	      2.21862533	      1.02745602	      0.99518018	     29.11196610	      1.30464774	      0.38303608	     47.30008498	      0.82554222	     13.56183466	    -14.32927946	      0.00000000	    -11.57055173	      1.12191310	     -0.86982234	     27.08679994	      0.47275384	      8.84835456	     -0.21869786	      0.00000000
     22.50666667	      0.29213683	     -1.18813771	     -1.31044647	      2.22014237	      1.03112780	      0.99595626	     29.10959997	      1.83572414	     -0.43321395	     43.95970258	      0.76724155	     13.47117081	    -11.87990638	      0.00000000	    -12.46127422	      0.45835022	     -1.73527046	     26.13823054	      0.45619818	      6.18209702	      0.07769921	      0.00000000
     22.51333333	     -0.07319293	     -1.71053064	     -1.64162187	      2.22157259	      1.03455035	      0.99678271	     29.07625550	      2.41531886	     -1.12036949	     40.60966214	      0.70877231	     13.20073247	     -9.49113558	      0.00000000	    -13.17409787	     -0.17760382	     -2.65521118	     25.42636379	      0.44377376	      3.44508692	      0.35350511	      0.00000000
     22.52000000	     -0.40183905	     -2.18348854	     -1.96570838	      2.22310559	      1.03780741	      0.99762606	     28.94653196	      2.96633595	     -1.82412953	     37.31118267	      0.65120299	     12.91683031	     -6.88036796	      0.00000000	    -13.84427326	     -0.75388092	     -3.54527907	     24.84686102	      0.43365953	      0.72068913	      0.61249830	      0.00000000
     22.52666667	     -0.67340158	     -2.57823654	     -2.25013305	      2.22461266	      1.04084823	      0.99844915	     28.73093531	      3.45205166	     -2.51074869	     34.13994291	      0.59585441	     12.56559161	     -4.14884231	      0.00000000	    -14.45576082	     -1.25836706	     -4.37466455	     24.45898412	      0.42688980	     -1.98052573	      0.83215296	      0.00000000
     22.53333333	     -0.96893831	     -2.91916502	     -2.53673034	      2.22615022	      1.04359554	      0.99933139	     28.51041006	      3.97758714	     -2.96661194	     31.09797206	      0.54276200	     12.10487094	     -1.59667989	      0.00000000	    -14.93138968	     -1.70494633	     -5.13290336	     24.25897035	      0.42339891	     -4.61719244	      1.01173616	      0.00000000
     22.54000000	     -1.16582506	     -3.19307756	     -2.77571619	      2.22755279	      1.04610158	      1.00018772	     28.18362359	      4.50204209	     -3.13901678	     28.24666535	      0.49299731	     11.54826004	      0.60856206	      0.00000000	    -15.35191826	     -2.10076605	     -5.78767242	     24.32308711	      0.42451795	     -7.12229262	      1.13416727	      0.00000000
     22.54666667	     -1.36179508	     -3.41714017	     -2.98866182	      2.22897876	      1.04827421	      1.00100984	     27.85893101	      4.99519774	     -3.14399379	     25.62936693	      0.44731684	     10.96368618	      2.55067790	      0.00000000	    -15.65226330	     -2.45944707	     -6.35305261	     24.58862975	      0.42915255	     -9.49589450	      1.16299857	      0.00000000
     22.55333333	     -1.57291835	     -3.51762842	     -3.21054711	      2.23019993	      1.04989498	      1.00185729	     27.65279071	      5.39283984	     -2.91554085	     23.42921236	      0.40891690	     10.30793071	      4.15530839	      0.00000000	    -15.73570082	     -2.70093023	     -6.80325834	     25.20554991	      0.43991984	    -11.75479664	      1.08289982	      0.00000000
     22.56000000	     -1.68993188	     -3.57381770	     -3.32533923	      2.23145448	      1.05129178	      1.00249398	     27.36282943	      5.68328401	     -2.65905194	     21.53490031	      0.37585491	      9.85661017	      5.50050621	      0.00000000	    -15.81436866	     -2.90252033	     -7.02458485	     25.96775815	      0.45322288	    -13.71630780	      0.96743082	      0.00000000
     22.56666667	     -1.63546760	     -3.64028933	     -3.34922331	      2.23264920	      1.05242896	      1.00303063	     26.93250117	      5.90923576	     -2.49631182	     19.98703095	      0.34883950	      9.46601750	      6.58827385	      0.00000000	    -15.93011060	     -3.14822117	     -7.15129069	     26.97486968	      0.47080029	    -15.44529129	      0.62864715	      0.00000000
     22.57333333	     -1.66738770	     -3.60266749	     -3.37804872	      2.23368378	      1.05294105	      1.00355176	     26.71746926	      6.02342101	     -2.21122849	     18.93665859	      0.33050704	      9.29189023	      7.35493145	      0.00000000	    -15.79497222	     -3.27900530	     -7.12218710	     28.23132219	      0.49272952	    -16.94851384	      0.29478450	      0.00000000
     22.58000000	     -1.55260985	     -3.64496522	     -3.30632015	      2.23461835	      1.05309570	      1.00388205	     26.41556357	      6.11840460	     -2.14619743	     18.27801431	      0.31901153	      9.07124870	      7.82056969	      0.00000000	    -15.67378070	     -3.48793938	     -6.88899382	     29.74414694	      0.51913330	    -18.13081609	     -0.45962940	      0.00000000
     22.58666667	     -1.47216057	     -3.60607956	     -3.22350218	      2.23543028	      1.05269231	      1.00416136	     26.25755687	      6.10101813	     -2.08563560	     18.08397260	      0.31562486	      9.01685024	      8.01342463	      0.00000000	    -15.38442513	     -3.59959664	     -6.53596247	     31.45081593	      0.54892029	    -19.05549440	     -1.32121721	      0.00000000
     22.59333333	     -1.35818661	     -3.56351349	     -3.11758345	      2.23612174	      1.05177373	      1.00437966	     26.16494866	      6.03495047	     -2.10429521	     18.33619847	      0.32002704	      9.02609544	      7.96632846	      0.00000000	    -15.01643386	     -3.68670945	     -6.07572752	     33.33832392	      0.58186352	    -19.70793099	     -2.38453069	      0.00000000
     22.60000000	     -1.15909015	     -3.59267017	     -2.98577339	      2.23676609	      1.05045246	      1.00454199	     26.01105366	      6.00341132	     -2.22080829	     18.89245494	      0.32973554	      9.03357193	      7.69707579	      0.00000000	    -14.64590085	     -3.86177348	     -5.64994023	     35.39143870	      0.61769713	    -20.03123815	     -3.43910273	      0.00000000
     22.60666667	     -1.00185878	     -3.53030700	     -2.82310844	      2.23725365	      1.04856354	      1.00461466	     25.99890664	      5.84203090	     -2.36200467	     19.85198521	      0.34648250	      8.95443202	      7.23504287	      0.00000000	    -14.12156006	     -3.89843402	     -5.03854823	     37.57081867	      0.65573449	    -20.09963824	     -4.78865435	      0.00000000
     22.61333333	     -0.70080410	     -3.53833423	     -2.70207768	      2.23770992	      1.04636669	      1.00472321	     25.85807957	      5.75066197	     -2.52772106	     21.08695008	      0.36803671	      8.81891461	      6.60765718	      0.00000000	    -13.72492148	     -3.97788346	     -4.50359381	     39.78558944	      0.69438953	    -19.88506986	     -6.11594554	      0.00000000
     22.62000000	     -0.52626963	     -3.43489334	     -2.58373217	      2.23802576	      1.04357037	      1.00479851	     25.91262794	      5.55498137	     -2.60734460	     22.61716809	      0.39474405	      8.54994651	      5.77006526	      0.00000000	    -13.09764237	     -3.89423512	     -3.84132658	     42.09150111	      0.73463528	    -19.50421101	     -7.68608905	      0.00000000
     22.62666667	     -0.01524275	     -3.52114923	     -2.50532486	      2.23840597	      1.04076840	      1.00496013	     25.56491870	      5.56457837	     -2.71947700	     24.27809498	      0.42373269	      8.29115884	      4.89285329	      0.00000000	    -12.85837208	     -4.05113407	     -3.47485046	     44.35099256	      0.77407085	    -18.81650292	     -8.96200191	      0.00000000
     22.63333333	      0.06522421	     -3.39211369	     -2.44539160	      2.23847896	      1.03702408	      1.00512460	     25.76644618	      5.44620025	     -2.49850411	     26.22069117	      0.45763739	      7.97340983	      3.50673234	      0.00000000	    -12.01490961	     -3.90485068	     -2.85200789	     46.74155418	      0.81579402	    -18.06312868	    -10.62407723	      0.00000000
     22.64000000	      0.39475885	     -3.42563424	     -2.41950179	      2.23859244	      1.03324099	      1.00538782	     25.66629666	      5.53057877	     -2.29631995	     28.25345483	      0.49311581	      7.78177225	      2.17695022	      0.00000000	    -11.45439491	     -3.97596866	     -2.48211199	     49.07764282	      0.85656646	    -17.10521414	    -11.97533216	      0.00000000
     22.64666667	      0.69970505	     -3.45898329	     -2.44307228	      2.23852738	      1.02915020	      1.00573647	     25.59018893	      5.70702932	     -1.91207355	     30.39397654	      0.53047496	      7.86366697	      0.73369098	      0.00000000	    -10.80967167	     -4.06296606	     -2.21144265	     51.42933698	      0.89761126	    -16.03074202	    -13.27616065	      0.00000000
     22.65333333	      0.99242083	     -3.52988629	     -2.51767366	      2.23833685	      1.02479029	      1.00619107	     25.53654873	      6.01245402	     -1.39760009	     32.63775473	      0.56963628	      8.22081003	     -0.72263585	      0.00000000	    -10.11345068	     -4.21231479	     -2.05636235	     53.77061405	      0.93847426	    -14.88971076	    -14.47613501	      0.00000000
     22.66000000	      1.48635284	     -3.74055828	     -2.58818171	      2.23803840	      1.02057253	      1.00666480	     25.22174970	      6.48336068	     -0.94763011	     34.88687663	      0.60889086	      8.97200064	     -1.83125293	      0.00000000	     -9.62048160	     -4.52066783	     -1.95961234	     56.03598805	      0.97801249	    -13.72467104	    -15.55614663	      0.00000000
     22.66666667	      1.83420861	     -3.93836080	     -2.71933619	      2.23755974	      1.01605119	      1.00717938	     25.07766866	      7.00468858	     -0.41286914	     37.19525077	      0.64917959	      9.96668613	     -2.98915167	      0.00000000	     -8.90797056	     -4.84226473	     -1.95748461	     58.30844888	      1.01767441	    -12.54809115	    -16.58590767	      0.00000000
     22.67333333	      1.76369155	     -4.04201944	     -2.94009007	      2.23670377	      1.01091896	      1.00791198	     25.40301049	      7.62730550	      0.53288472	     39.53190007	      0.68996182	     10.99828988	     -4.72006653	      0.00000000	     -7.59795891	     -5.13664559	     -2.05529200	     60.70156564	      1.05944218	    -11.32271231	    -17.46548416	      0.00000000
     22.68000000	      1.94142066	     -4.30689287	     -3.12375491	      2.23583494	      1.00624097	      1.00848664	     25.34858861	      8.34013843	      1.23923772	     41.71352759	      0.72803840	     12.33241842	     -5.88172947	      0.00000000	     -6.55192878	     -5.61571026	     -2.17555686	     62.97085074	      1.09904868	    -10.14826632	    -18.27822061	      0.00000000
     22.68666667	      2.08885460	     -4.61946584	     -3.32038639	      2.23481096	      1.00165514	      1.00903617	     25.25304482	      9.09588842	      1.89577878	     43.76949295	      0.76392176	     13.79660748	     -6.83008516	      0.00000000	     -5.41598417	     -6.16673560	     -2.30368667	     65.19257464	      1.13782508	     -9.04394445	    -19.05511918	      0.00000000
     22.69333333	      2.15407924	     -4.93098896	     -3.50113752	      2.23362503	      0.99720694	      1.00951552	     25.13973146	      9.85503336	      2.57106005	     45.63093014	      0.79640997	     15.27305635	     -7.73705323	      0.00000000	     -4.10881698	     -6.74285553	     -2.39982011	     67.37586037	      1.17593060	     -7.94559381	    -19.74955257	      0.00000000
